<svg width="73" height="23" viewBox="0 0 73 23" fill="none" xmlns="http://www.w3.org/2000/svg">
<path d="M10.3809 16.8906V19H3.23242V16.8906H10.3809ZM4.04297 4.78125V19H1.35742V4.78125H4.04297ZM19.7168 4.78125H22.4023V14.2246C22.4023 15.3118 22.168 16.2266 21.6992 16.9688C21.2305 17.7044 20.5924 18.2611 19.7852 18.6387C18.9779 19.0098 18.0599 19.1953 17.0312 19.1953C15.9896 19.1953 15.0618 19.0098 14.248 18.6387C13.4342 18.2611 12.7962 17.7044 12.334 16.9688C11.8717 16.2266 11.6406 15.3118 11.6406 14.2246V4.78125H14.3262V14.2246C14.3262 14.8887 14.4368 15.4323 14.6582 15.8555C14.8796 16.2721 15.1921 16.5814 15.5957 16.7832C15.9993 16.985 16.4779 17.0859 17.0312 17.0859C17.5911 17.0859 18.0697 16.985 18.4668 16.7832C18.8704 16.5814 19.1797 16.2721 19.3945 15.8555C19.6094 15.4323 19.7168 14.8887 19.7168 14.2246V4.78125ZM36.377 4.78125V19H33.6816L27.6367 9.13672V19H24.9512V4.78125H27.6367L33.7012 14.6543V4.78125H36.377ZM44.9414 6.93945L40.8887 19H38.0469L43.3594 4.78125H45.1758L44.9414 6.93945ZM48.3301 19L44.2578 6.93945L44.0137 4.78125H45.8398L51.1816 19H48.3301ZM48.1445 13.7168V15.8359H40.5176V13.7168H48.1445Z" fill="black"/>
<path d="M58 16.8333H60.5V11.8333H65.5V16.8333H68V9.33333L63 5.58333L58 9.33333V16.8333ZM56.3333 18.5V8.5L63 3.5L69.6667 8.5V18.5H63.8333V13.5H62.1667V18.5H56.3333Z" fill="black"/>
<path d="M68.5 7.875C67.5625 7.875 66.7656 7.54688 66.1094 6.89063C65.4531 6.23438 65.125 5.4375 65.125 4.5C65.125 3.5625 65.4531 2.76563 66.1094 2.10938C66.7656 1.45313 67.5625 1.125 68.5 1.125C68.5875 1.125 68.6734 1.12812 68.7578 1.13438C68.8422 1.14063 68.925 1.15 69.0063 1.1625C68.75 1.34375 68.5453 1.57969 68.3922 1.87031C68.2391 2.16094 68.1625 2.475 68.1625 2.8125C68.1625 3.375 68.3594 3.85313 68.7531 4.24688C69.1469 4.64063 69.625 4.8375 70.1875 4.8375C70.5313 4.8375 70.8469 4.76094 71.1344 4.60781C71.4219 4.45469 71.6563 4.25 71.8375 3.99375C71.85 4.075 71.8594 4.15781 71.8656 4.24219C71.8719 4.32656 71.875 4.4125 71.875 4.5C71.875 5.4375 71.5469 6.23438 70.8906 6.89063C70.2344 7.54688 69.4375 7.875 68.5 7.875ZM68.5 7.125C69.05 7.125 69.5438 6.97344 69.9813 6.67031C70.4188 6.36719 70.7375 5.97188 70.9375 5.48438C70.8125 5.51563 70.6875 5.54063 70.5625 5.55938C70.4375 5.57813 70.3125 5.5875 70.1875 5.5875C69.4188 5.5875 68.7641 5.31719 68.2234 4.77656C67.6828 4.23594 67.4125 3.58125 67.4125 2.8125C67.4125 2.6875 67.4219 2.5625 67.4406 2.4375C67.4594 2.3125 67.4844 2.1875 67.5156 2.0625C67.0281 2.2625 66.6328 2.58125 66.3297 3.01875C66.0266 3.45625 65.875 3.95 65.875 4.5C65.875 5.225 66.1313 5.84375 66.6438 6.35625C67.1563 6.86875 67.775 7.125 68.5 7.125Z" fill="black"/>
</svg>
